<svg width="17" height="17" viewBox="0 0 17 17" fill="none" xmlns="http://www.w3.org/2000/svg">
<path d="M14.4552 15.2704H4.45304C4.25409 15.2704 4.06328 15.1914 3.9226 15.0507C3.78192 14.91 3.70288 14.7192 3.70288 14.5202V4.26801C3.70288 4.13537 3.75557 4.00817 3.84936 3.91438C3.94315 3.82059 4.07035 3.7679 4.20299 3.7679H14.4552C14.6542 3.7679 14.845 3.84694 14.9857 3.98762C15.1264 4.1283 15.2054 4.31911 15.2054 4.51807V14.5202C15.2054 14.7192 15.1264 14.91 14.9857 15.0507C14.845 15.1914 14.6542 15.2704 14.4552 15.2704Z" fill="black"/>
<path d="M3.70391 2.76793H12.7059V2.01776C12.7059 1.81881 12.6268 1.628 12.4862 1.48732C12.3455 1.34664 12.1547 1.2676 11.9557 1.2676H2.07856C1.84644 1.2676 1.62384 1.35981 1.45971 1.52394C1.29558 1.68807 1.20337 1.91068 1.20337 2.14279V12.0199C1.20337 12.2189 1.2824 12.4097 1.42309 12.5504C1.56377 12.6911 1.75458 12.7701 1.95353 12.7701H2.7037V3.76815C2.7037 3.50287 2.80908 3.24846 2.99665 3.06089C3.18423 2.87331 3.43864 2.76793 3.70391 2.76793Z" fill="black"/>
</svg>
