<svg width="128" height="128" viewBox="0 0 128 128" fill="none" xmlns="http://www.w3.org/2000/svg">
<path d="M11.8719 25.9977H107.997V12.8777C107.997 12.2858 107.866 11.7013 107.612 11.1663C107.359 10.6314 106.991 10.1592 106.533 9.78399C106.075 9.40876 105.54 9.13979 104.965 8.99647C104.391 8.85316 103.792 8.83907 103.212 8.95523L11.2119 24.0752C10.5269 24.2116 9.88945 24.525 9.36312 24.9842C8.83679 25.4434 8.43989 26.0325 8.21191 26.6927C9.37709 26.2321 10.619 25.9962 11.8719 25.9977V25.9977Z" fill="black"/>
<path d="M115.869 31.9945H11.8691C10.8083 31.9945 9.79086 32.4159 9.04071 33.1661C8.29057 33.9162 7.86914 34.9336 7.86914 35.9945V107.995C7.86914 109.055 8.29057 110.073 9.04071 110.823C9.79086 111.573 10.8083 111.995 11.8691 111.995H115.869C116.93 111.995 117.947 111.573 118.698 110.823C119.448 110.073 119.869 109.055 119.869 107.995V35.9945C119.869 34.9336 119.448 33.9162 118.698 33.1661C117.947 32.4159 116.93 31.9945 115.869 31.9945ZM91.9941 79.9945C90.4119 79.9945 88.8652 79.5253 87.5496 78.6463C86.234 77.7672 85.2086 76.5178 84.6031 75.056C83.9976 73.5942 83.8392 71.9856 84.1479 70.4338C84.4565 68.8819 85.2185 67.4565 86.3373 66.3377C87.4561 65.2188 88.8816 64.4569 90.4334 64.1482C91.9853 63.8395 93.5938 63.998 95.0556 64.6035C96.5174 65.209 97.7668 66.2344 98.6459 67.5499C99.5249 68.8655 99.9941 70.4123 99.9941 71.9945C99.9941 74.1162 99.1513 76.1511 97.651 77.6514C96.1507 79.1517 94.1159 79.9945 91.9941 79.9945Z" fill="black"/>
<path d="M7.82812 64.8802V29C7.82812 25.9171 9.25833 24.3794 11.6837 23.9993C20.4849 22.6166 38.8325 21.874 38.8325 21.874C38.8325 21.874 36.7497 25.8746 31.9991 25.8746V32.0005C36.6247 32.0005 39.8327 37.8763 39.8327 37.8763L21.205 59.0043L7.82812 64.8802Z" fill="black"/>
</svg>
