<svg width="32" height="32" viewBox="0 0 32 32" fill="none" xmlns="http://www.w3.org/2000/svg">
<path d="M16.001 3.99951C9.37598 3.99951 4.00098 9.37451 4.00098 15.9995C4.00098 22.6245 9.37598 27.9995 16.001 27.9995C22.626 27.9995 28.001 22.6245 28.001 15.9995C28.001 9.37451 22.626 3.99951 16.001 3.99951ZM16.6535 22.8745H14.7654C14.7229 22.8743 14.6822 22.8574 14.6522 22.8272C14.6222 22.7971 14.6054 22.7564 14.6054 22.7139V20.8264C14.6054 20.7839 14.6222 20.7431 14.6522 20.713C14.6822 20.6829 14.7229 20.6659 14.7654 20.6658H16.6535C16.696 20.6659 16.7367 20.6829 16.7667 20.713C16.7966 20.7431 16.8135 20.7839 16.8135 20.8264V22.7139C16.8135 22.7564 16.7966 22.7971 16.7667 22.8272C16.7367 22.8574 16.696 22.8743 16.6535 22.8745ZM17.716 16.687C16.7029 17.367 16.5635 17.9901 16.5635 18.562V19.2495C16.5635 19.2992 16.5437 19.3469 16.5086 19.3821C16.4734 19.4173 16.4257 19.437 16.376 19.437H15.001C14.9513 19.437 14.9036 19.4173 14.8684 19.3821C14.8332 19.3469 14.8135 19.2992 14.8135 19.2495V18.562C14.8135 17.1926 15.4435 16.1039 16.7397 15.2333C17.9447 14.4245 18.626 13.912 18.626 12.7851C18.626 12.0189 18.1885 11.437 17.2829 11.0064C17.0697 10.9051 16.5954 10.8064 16.0116 10.8133C15.2791 10.8226 14.7104 10.9976 14.2722 11.3501C13.446 12.0151 13.376 12.7395 13.376 12.7495C13.3417 12.962 13.3241 13.1768 13.3235 13.392C13.3235 13.4417 13.3037 13.4894 13.2686 13.5246C13.2334 13.5598 13.1857 13.5795 13.136 13.5795H11.8079C11.7613 13.5798 11.7163 13.5627 11.6817 13.5316C11.647 13.5005 11.6252 13.4577 11.6204 13.4114C11.5978 13.1618 11.5997 12.9106 11.626 12.6614C11.6397 12.5095 11.7385 11.1414 13.1741 9.98639C13.9185 9.38764 14.8654 9.07639 15.9866 9.06264C16.7804 9.05326 17.526 9.18764 18.0316 9.42639C19.5447 10.1458 20.376 11.3389 20.376 12.7851C20.376 14.8995 18.9629 15.8489 17.716 16.687Z" fill="white"/>
</svg>
