<svg width="32" height="32" viewBox="0 0 32 32" fill="none" xmlns="http://www.w3.org/2000/svg">
<path d="M26.8413 2.00357C25.3663 2.4117 13.9944 5.6792 11.1825 6.46795C11.1302 6.48261 11.0841 6.5139 11.0512 6.55709C11.0183 6.60028 11.0003 6.65302 11 6.70732V22.1448C11.0001 22.1707 10.9921 22.1959 10.9772 22.2171C10.9623 22.2383 10.9413 22.2543 10.9169 22.2629L9.17625 22.8598C7.98875 23.3248 5 23.9023 5 26.5592C5 28.7804 6.53938 29.7804 7.86625 29.9517C8.02747 29.9806 8.19064 29.9973 8.35438 30.0017C8.815 30.0017 10.6281 29.5592 11.6856 28.8717C13 28.0148 13 27.9992 13 25.7492V12.6242C13 12.568 13.0388 12.5717 13.0925 12.5573L24.8425 9.31232C24.8614 9.30711 24.8813 9.30643 24.9006 9.31033C24.9198 9.31423 24.9378 9.3226 24.9532 9.33477C24.9686 9.34694 24.9809 9.36257 24.9892 9.38039C24.9974 9.3982 25.0013 9.41771 25.0006 9.43732V19.1586C25.0006 19.1847 24.9923 19.2101 24.9771 19.2313C24.9619 19.2525 24.9404 19.2683 24.9156 19.2767C24.3594 19.4642 23.7138 19.6829 23.2606 19.8467C21.3369 20.5417 19 20.9773 19 23.4992C19 25.9061 20.7663 26.9104 21.8938 26.9886C22.339 27.0223 22.7867 27.0013 23.2269 26.9261C23.7894 26.8398 24.7325 26.5573 25.6106 25.9973C27 25.1111 27 25.0936 27 22.4992V2.1242C27 2.10488 26.9956 2.08582 26.987 2.0685C26.9785 2.05119 26.966 2.03609 26.9506 2.0244C26.9353 2.01272 26.9174 2.00475 26.8984 2.00114C26.8794 1.99752 26.8599 1.99836 26.8413 2.00357Z" fill="white"/>
</svg>
