<svg width="32" height="32" viewBox="0 0 32 32" fill="none" xmlns="http://www.w3.org/2000/svg">
<path d="M2.96773 6.49943H26.999V3.21943C26.999 3.07146 26.9662 2.92533 26.9029 2.79159C26.8396 2.65784 26.7474 2.5398 26.633 2.446C26.5185 2.35219 26.3847 2.28495 26.2411 2.24912C26.0976 2.21329 25.9478 2.20977 25.8027 2.23881L2.80273 6.01881C2.63147 6.0529 2.47212 6.13125 2.34054 6.24605C2.20895 6.36086 2.10973 6.50812 2.05273 6.67318C2.34403 6.55801 2.6545 6.49906 2.96773 6.49943Z" fill="white"/>
<path d="M28.9668 7.99866H2.9668C2.70158 7.99866 2.44723 8.10401 2.25969 8.29155C2.07215 8.47909 1.9668 8.73344 1.9668 8.99866V26.9987C1.9668 27.2639 2.07215 27.5182 2.25969 27.7058C2.44723 27.8933 2.70158 27.9987 2.9668 27.9987H28.9668C29.232 27.9987 29.4864 27.8933 29.6739 27.7058C29.8614 27.5182 29.9668 27.2639 29.9668 26.9987V8.99866C29.9668 8.73344 29.8614 8.47909 29.6739 8.29155C29.4864 8.10401 29.232 7.99866 28.9668 7.99866ZM22.998 19.9987C22.6025 19.9987 22.2158 19.8814 21.8869 19.6616C21.558 19.4418 21.3017 19.1295 21.1503 18.764C20.9989 18.3986 20.9593 17.9964 21.0365 17.6085C21.1136 17.2205 21.3041 16.8642 21.5838 16.5844C21.8635 16.3047 22.2199 16.1143 22.6079 16.0371C22.9958 15.9599 23.398 15.9995 23.7634 16.1509C24.1289 16.3023 24.4412 16.5586 24.661 16.8875C24.8807 17.2164 24.998 17.6031 24.998 17.9987C24.998 18.5291 24.7873 19.0378 24.4123 19.4129C24.0372 19.7879 23.5285 19.9987 22.998 19.9987Z" fill="white"/>
<path d="M1.95703 16.22V7.25001C1.95703 6.47928 2.31458 6.09485 2.92092 5.99983C5.12123 5.65416 9.70813 5.46851 9.70813 5.46851C9.70813 5.46851 9.18744 6.46865 7.99977 6.46865V8.00012C9.15618 8.00012 9.95817 9.46908 9.95817 9.46908L5.30126 14.7511L1.95703 16.22Z" fill="white"/>
</svg>
