<svg width="128" height="128" viewBox="0 0 128 128" fill="none" xmlns="http://www.w3.org/2000/svg">
<path d="M4.02537 47.3487L11.1704 105.816C11.3709 107.522 12.1913 109.094 13.4755 110.234C14.7598 111.374 16.4182 112.002 18.1354 111.999H109.885C111.603 112.002 113.261 111.374 114.545 110.234C115.829 109.094 116.65 107.522 116.85 105.816L123.985 47.3487C124.035 46.9281 123.995 46.5017 123.867 46.0977C123.74 45.6937 123.529 45.3213 123.247 45.0048C122.966 44.6883 122.621 44.4351 122.234 44.2617C121.848 44.0883 121.429 43.9986 121.005 43.9987H7.00537C6.58183 43.9986 6.16307 44.0883 5.77664 44.2617C5.39022 44.4351 5.0449 44.6883 4.76339 45.0048C4.48189 45.3213 4.27058 45.6937 4.14338 46.0977C4.01617 46.5017 3.97596 46.9281 4.02537 47.3487Z" fill="black"/>
<path d="M116.003 30.9972C116.003 29.1407 115.265 27.3602 113.953 26.0474C112.64 24.7347 110.859 23.9972 109.003 23.9972H61.2129L49.2129 15.9972H19.0029C17.1464 15.9972 15.3659 16.7347 14.0532 18.0474C12.7404 19.3602 12.0029 21.1407 12.0029 22.9972V35.9972H116.003V30.9972Z" fill="black"/>
</svg>
