<svg width="32" height="32" viewBox="0 0 32 32" fill="none" xmlns="http://www.w3.org/2000/svg">
<path d="M15.9998 11.0005C15.0109 11.0005 14.0442 11.2937 13.2219 11.8431C12.3997 12.3926 11.7588 13.1734 11.3804 14.0871C11.0019 15.0007 10.9029 16.006 11.0958 16.9759C11.2888 17.9459 11.765 18.8368 12.4642 19.536C13.1635 20.2353 14.0544 20.7115 15.0243 20.9044C15.9942 21.0973 16.9996 20.9983 17.9132 20.6199C18.8268 20.2415 19.6077 19.6006 20.1571 18.7783C20.7065 17.9561 20.9998 16.9894 20.9998 16.0005C20.9958 14.6756 20.4678 13.4062 19.5309 12.4693C18.5941 11.5325 17.3246 11.0044 15.9998 11.0005ZM26.7948 16.0005C26.7922 16.4677 26.7579 16.9342 26.6923 17.3967L29.7354 19.7792C29.8679 19.8887 29.9572 20.0417 29.9874 20.2109C30.0175 20.3801 29.9864 20.5546 29.8998 20.703L27.021 25.673C26.9335 25.8201 26.7969 25.9317 26.6353 25.988C26.4736 26.0444 26.2973 26.0419 26.1373 25.9811L22.5591 24.5436C21.8141 25.1174 20.9987 25.5935 20.1329 25.9605L19.5979 29.7592C19.5679 29.9294 19.4798 30.0839 19.3486 30.1963C19.2174 30.3087 19.0513 30.372 18.8785 30.3755H13.121C12.9514 30.3722 12.788 30.3115 12.6573 30.2033C12.5266 30.0951 12.4365 29.9459 12.4016 29.7799L11.8666 25.9811C10.9984 25.6184 10.1825 25.1415 9.44039 24.563L5.86226 26.0005C5.70232 26.0614 5.52603 26.0639 5.36439 26.0077C5.20276 25.9514 5.06612 25.84 4.97851 25.693L2.09976 20.7236C2.01311 20.5752 1.98207 20.4008 2.01218 20.2315C2.04229 20.0623 2.1316 19.9093 2.26414 19.7999L5.30726 17.4174C5.24236 16.9478 5.20812 16.4745 5.20476 16.0005C5.20736 15.5333 5.24161 15.0668 5.30726 14.6042L2.26414 12.2217C2.1316 12.1123 2.04229 11.9593 2.01218 11.7901C1.98207 11.6209 2.01311 11.4464 2.09976 11.298L4.97851 6.32799C5.06603 6.18086 5.20262 6.06931 5.36426 6.01295C5.52591 5.95659 5.70225 5.95904 5.86226 6.01986L9.44039 7.45737C10.1855 6.88362 11.0008 6.40747 11.8666 6.04049L12.4016 2.24174C12.4316 2.07158 12.5197 1.9171 12.6509 1.8047C12.7821 1.6923 12.9483 1.62896 13.121 1.62549H18.8785C19.0481 1.62879 19.2116 1.68948 19.3422 1.79766C19.4729 1.90584 19.563 2.05511 19.5979 2.22111L20.1329 6.01986C21.0022 6.38235 21.8192 6.85927 22.5623 7.43799L26.1373 6.00049C26.2972 5.93961 26.4735 5.93707 26.6351 5.99331C26.7968 6.04955 26.9334 6.16097 27.021 6.30799L29.8998 11.278C29.9864 11.4264 30.0175 11.6009 29.9874 11.7701C29.9572 11.9393 29.8679 12.0923 29.7354 12.2017L26.6923 14.5842C26.7571 15.0536 26.7914 15.5267 26.7948 16.0005Z" fill="white"/>
</svg>
